<svg xmlns="http://www.w3.org/2000/svg" viewBox="0 0 960 520">
  <defs>
    <linearGradient id="bg" x1="0" x2="0" y1="0" y2="1">
      <stop offset="0" stop-color="#0F172A"/>
      <stop offset="1" stop-color="#0B0E14"/>
    </linearGradient>
    <linearGradient id="g" x1="0" x2="0" y1="0" y2="1">
      <stop offset="0" stop-color="#23C483" stop-opacity=".95"/>
      <stop offset="1" stop-color="#23C483" stop-opacity=".55"/>
    </linearGradient>
  </defs>

  <rect width="960" height="520" rx="28" fill="url(#bg)" stroke="rgba(255,255,255,.12)"/>
  <g stroke="rgba(255,255,255,.07)" stroke-width="1">
    <path d="M80 90 H900"/>
    <path d="M80 160 H900"/>
    <path d="M80 230 H900"/>
    <path d="M80 300 H900"/>
    <path d="M80 370 H900"/>
    <path d="M80 440 H900"/>
    <path d="M160 70 V460"/>
    <path d="M260 70 V460"/>
    <path d="M360 70 V460"/>
    <path d="M460 70 V460"/>
    <path d="M560 70 V460"/>
    <path d="M660 70 V460"/>
    <path d="M760 70 V460"/>
    <path d="M860 70 V460"/>
  </g>

  <g stroke-linecap="round" stroke-width="6" stroke="#E5E7EB" opacity=".9">
    <line x1="190" y1="220" x2="190" y2="320"/>
    <rect x="176" y="250" width="28" height="54" fill="url(#g)" stroke="none"/>
    <line x1="260" y1="170" x2="260" y2="340"/>
    <rect x="246" y="210" width="28" height="80" fill="url(#g)" stroke="none"/>
    <line x1="330" y1="210" x2="330" y2="360"/>
    <rect x="316" y="260" width="28" height="64" fill="url(#g)" stroke="none"/>
    <line x1="400" y1="150" x2="400" y2="320"/>
    <rect x="386" y="190" width="28" height="82" fill="url(#g)" stroke="none"/>
    <line x1="470" y1="120" x2="470" y2="300"/>
    <rect x="456" y="168" width="28" height="90" fill="url(#g)" stroke="none"/>
    <line x1="540" y1="160" x2="540" y2="340"/>
    <rect x="526" y="220" width="28" height="76" fill="url(#g)" stroke="none"/>
    <line x1="610" y1="110" x2="610" y2="310"/>
    <rect x="596" y="160" width="28" height="96" fill="url(#g)" stroke="none"/>
    <line x1="680" y1="90" x2="680" y2="280"/>
    <rect x="666" y="142" width="28" height="100" fill="url(#g)" stroke="none"/>
    <line x1="750" y1="140" x2="750" y2="330"/>
    <rect x="736" y="200" width="28" height="86" fill="url(#g)" stroke="none"/>
    <line x1="820" y1="100" x2="820" y2="300"/>
    <rect x="806" y="150" width="28" height="98" fill="url(#g)" stroke="none"/>
  </g>

  <path d="M160 330 L260 270 L330 300 L470 230 L610 200 L680 170 L820 195"
        fill="none" stroke="#E8B34C" stroke-width="4" opacity=".9"/>

  <text x="80" y="54" fill="rgba(229,231,235,.8)" font-family="ui-monospace, monospace" font-size="14">DEMO CHART</text>
</svg>
